<?xml version="1.0" encoding="UTF-8"?>
<svg version="1.1" xmlns="http://www.w3.org/2000/svg" width="195" height="215">
<path d="M0 0 C64.35 0 128.7 0 195 0 C195 70.95 195 141.9 195 215 C130.65 215 66.3 215 0 215 C0 144.05 0 73.1 0 0 Z " fill="#3DAC63" transform="translate(0,0)"/>
<path d="M0 0 C64.35 0 128.7 0 195 0 C195 70.95 195 141.9 195 215 C130.65 215 66.3 215 0 215 C0 144.05 0 73.1 0 0 Z M90.875 8.125 C89.90820312 8.76050781 88.94140625 9.39601563 87.9453125 10.05078125 C86.97335938 10.69402344 86.00140625 11.33726563 85 12 C79.44469709 15.56666549 74.49008492 18.58911197 68 20 C68 20.66 68 21.32 68 22 C62.67021255 23.34784099 57.33648792 24.67895467 52 26 C50.81019531 26.29648437 49.62039062 26.59296875 48.39453125 26.8984375 C47.31558594 27.15882812 46.23664062 27.41921875 45.125 27.6875 C44.17882813 27.91824219 43.23265625 28.14898438 42.2578125 28.38671875 C34.04816401 29.93218016 25.70569957 30.22326591 17.375 30.5625 C16.37082031 30.60568359 15.36664063 30.64886719 14.33203125 30.69335938 C11.88811617 30.79809859 9.44412383 30.90027256 7 31 C6.3645772 57.03522716 7.09562573 82.20474242 16 107 C16.36738281 108.19753906 16.73476563 109.39507812 17.11328125 110.62890625 C20.39375959 121.25945979 25.02037862 131.07405182 30 141 C30.56485107 142.13356934 30.56485107 142.13356934 31.14111328 143.29003906 C32.20458314 145.40951255 33.28489496 147.51912109 34.375 149.625 C34.69637939 150.25857422 35.01775879 150.89214844 35.34887695 151.54492188 C37.25530613 155.26554492 37.25530613 155.26554492 41 157 C41.39251953 158.02287109 41.39251953 158.02287109 41.79296875 159.06640625 C43.53898017 163.30994856 46.38571123 166.43899666 49.3125 169.9375 C49.88162109 170.62779297 50.45074219 171.31808594 51.03710938 172.02929688 C52.68482883 174.02509943 54.34164604 176.01303213 56 178 C56.47679199 178.57685547 56.95358398 179.15371094 57.44482422 179.74804688 C60.85014377 183.86422846 64.31919291 187.65535433 68.5 191 C71 193 71 193 73.2578125 195.30859375 C76.13547619 198.13296737 79.17567923 200.6215088 82.375 203.0625 C82.91382812 203.48337891 83.45265625 203.90425781 84.0078125 204.33789062 C90.86884463 209.92938852 90.86884463 209.92938852 99.12109375 211.9609375 C108.69809763 208.76427135 116.93978973 199.85266162 124.51464844 193.28125 C125.83431775 192.14291592 127.16998632 191.02318899 128.5078125 189.90625 C134.45011277 184.85425952 139.20935452 179.1366309 144 173 C144.58394531 172.28199219 145.16789063 171.56398437 145.76953125 170.82421875 C178.45631731 130.17624826 189.82171053 82.19888689 189 31 C187.93023926 30.98598145 187.93023926 30.98598145 186.83886719 30.97167969 C160.08089813 30.53358774 135.21882923 27.03712885 111.86328125 13.03125 C110.0632922 11.83858644 110.0632922 11.83858644 108 12 C108 11.34 108 10.68 108 10 C104.19572508 7.7986134 104.19572508 7.7986134 100 7 C100 6.34 100 5.68 100 5 C95.51935699 5 94.48567754 5.69331921 90.875 8.125 Z " fill="#FDFEFD" transform="translate(0,0)"/>
<path d="M0 0 C2.55954389 1.19074433 5.01839553 2.41781497 7.5 3.75 C14.80442555 7.52774443 22.15318288 10.50084249 30 13 C31.12921875 13.36996094 32.2584375 13.73992188 33.421875 14.12109375 C41.15248372 16.50848762 48.68466294 17.7773854 56.69921875 18.60546875 C60 19 60 19 63 20 C64.42824067 49.51697375 52.27915894 79.80878814 38 105 C37.45988281 105.98097656 36.91976562 106.96195312 36.36328125 107.97265625 C35.91339844 108.64167969 35.46351563 109.31070313 35 110 C34.34 110 33.68 110 33 110 C32.76925781 110.69222656 32.53851563 111.38445312 32.30078125 112.09765625 C30.72652366 115.61018894 28.56399447 118.44500697 26.1875 121.4375 C25.76146484 121.98470703 25.33542969 122.53191406 24.89648438 123.09570312 C23.60978787 124.74057233 22.30896317 126.37280604 21 128 C20.56792236 128.53794189 20.13584473 129.07588379 19.69067383 129.63012695 C17.39867522 132.43707374 15.08729136 134.98311983 12.3125 137.3125 C8.12464494 140.87697206 4.0620292 144.56617482 0.00390625 148.27734375 C-2 150 -2 150 -3 150 C-3.33 135.15 -3.66 120.3 -4 105 C-10.27 104.67 -16.54 104.34 -23 104 C-22.53049985 94.98559711 -21.49547561 86.59596672 -19.62109375 77.7890625 C-18.38058766 70.31079644 -18.38058766 70.31079644 -20.5 63.25 C-23.21714485 57.36285282 -22.86489503 50.74731362 -20.9375 44.625 C-18.38075797 41.16102693 -15.85761154 38.00726567 -12 36 C-7.545 35.505 -7.545 35.505 -3 35 C-3 57.77 -3 80.54 -3 104 C3.6 104 10.2 104 17 104 C16.6390625 102.02257812 16.278125 100.04515625 15.90625 98.0078125 C15.55813684 96.05837878 15.21008868 94.10893291 14.86376953 92.15917969 C14.62435834 90.82040514 14.38192537 89.48216686 14.13623047 88.14453125 C10.44893756 68.03749728 10.44893756 68.03749728 13.5 62.0625 C15.77718659 57.41324404 15.76969452 53.07854518 15 48 C12.95416277 42.86435921 10.11942341 39.26207081 5 37 C2.34858295 35.94141185 -0.30888133 34.9578558 -3 34 C-3 30.7 -3 27.4 -3 24 C-3.72405029 24.32234619 -4.44810059 24.64469238 -5.1940918 24.97680664 C-19.75447747 30.28634953 -41.74516106 25.77199159 -56 21 C-56.66 20.34 -57.32 19.68 -58 19 C-57.09121094 18.84144531 -56.18242188 18.68289062 -55.24609375 18.51953125 C-42.91181424 16.22978295 -31.08763723 13.04780212 -20 7 C-19.01 6.525625 -18.02 6.05125 -17 5.5625 C-14.11700133 4.13836414 -14.11700133 4.13836414 -12.0625 2.66796875 C-11.381875 2.20003906 -10.70125 1.73210938 -10 1.25 C-9.38125 0.80140625 -8.7625 0.3528125 -8.125 -0.109375 C-5.01996826 -1.4107486 -3.23341521 -0.87898666 0 0 Z " fill="#FBFDFC" transform="translate(102,34)"/>
<path d="M0 0 C5.85078872 0 9.18876758 0.23523423 13.41796875 4.39453125 C18.32713869 10.0811064 19.37666926 13.95898802 19.26953125 21.33203125 C18.9297659 24.69521578 17.52808803 27.00749428 16 30 C14.44755645 39.75253 16.89241949 52.67725846 20 62 C20 64.31 20 66.62 20 69 C13.4 69 6.8 69 0 69 C0 46.23 0 23.46 0 0 Z " fill="#635756" transform="translate(99,69)"/>
<path d="M0 0 C0 22.77 0 45.54 0 69 C6.6 69 13.2 69 20 69 C20 69.33 20 69.66 20 70 C13.73 70 7.46 70 1 70 C1 83.2 1 96.4 1 110 C2.32 110.33 3.64 110.66 5 111 C3.35 112.32 1.7 113.64 0 115 C-0.33 100.15 -0.66 85.3 -1 70 C-7.27 69.67 -13.54 69.34 -20 69 C-19.46534382 58.73460135 -18.07464983 49.04704634 -16 39 C-15.67 39 -15.34 39 -15 39 C-14.5366743 48.57539773 -16.28364331 57.62133665 -18 67 C-12.39 67 -6.78 67 -1 67 C-1 45.22 -1 23.44 -1 1 C-3.64 1.33 -6.28 1.66 -9 2 C-6 0 -6 0 0 0 Z " fill="#E1E1DD" transform="translate(99,69)"/>
<path d="M0 0 C1.24303616 3.59099336 0.68116015 6.31668957 0 10 C0.85549438 9.99214478 0.85549438 9.99214478 1.72827148 9.98413086 C4.29800323 9.96341779 6.86771747 9.9503581 9.4375 9.9375 C10.78424805 9.92493164 10.78424805 9.92493164 12.15820312 9.91210938 C13.01220703 9.90888672 13.86621094 9.90566406 14.74609375 9.90234375 C15.53685303 9.89710693 16.3276123 9.89187012 17.14233398 9.88647461 C19 10 19 10 20 11 C20.0928726 12.41225046 20.11746772 13.82908934 20.11352539 15.24438477 C20.11344986 16.14524307 20.11337433 17.04610138 20.11329651 17.97425842 C20.10813522 18.95341721 20.10297394 19.93257599 20.09765625 20.94140625 C20.0962413 21.93881332 20.09482635 22.9362204 20.09336853 23.96385193 C20.08775114 27.16343124 20.07519571 30.36294169 20.0625 33.5625 C20.05748724 35.72591045 20.05292395 37.88932199 20.04882812 40.05273438 C20.03777607 45.36851325 20.02102104 50.68425171 20 56 C18.515 55.505 18.515 55.505 17 55 C17 41.14 17 27.28 17 13 C10.73 13 4.46 13 -2 13 C-4 9 -4 9 -3.125 5.75 C-2.568125 4.38875 -2.568125 4.38875 -2 3 C-1.34 3 -0.68 3 0 3 C0 2.01 0 1.02 0 0 Z " fill="#57A875" transform="translate(79,128)"/>
<path d="M0 0 C6.57462953 0.81971602 13.13975896 1.00654208 19.7578125 1.22265625 C21.62179688 1.28743164 21.62179688 1.28743164 23.5234375 1.35351562 C26.55980921 1.4586208 29.59624915 1.56076968 32.6328125 1.66015625 C32.9819276 15.23088682 32.69261929 28.58926149 31.2578125 42.09765625 C31.13172607 43.31743164 31.00563965 44.53720703 30.87573242 45.79394531 C29.89222051 54.40074824 29.89222051 54.40074824 27.6328125 56.66015625 C26.63535655 52.17825417 26.76232083 49.18436996 28.0078125 44.78515625 C29.51717104 38.82319003 30.09300823 33.15608185 30.34130859 27.04150391 C30.47575496 23.79116112 30.66479596 20.77843905 31.6328125 17.66015625 C30.9728125 17.66015625 30.3128125 17.66015625 29.6328125 17.66015625 C29.6328125 13.04015625 29.6328125 8.42015625 29.6328125 3.66015625 C28.39789063 3.68335938 27.16296875 3.7065625 25.890625 3.73046875 C14.3114399 3.87768127 3.1059333 3.21207597 -8.3671875 1.66015625 C-5.29734767 -0.15510244 -3.51137435 -0.51646683 0 0 Z " fill="#54A271" transform="translate(156.3671875,29.33984375)"/>
<path d="M0 0 C0.66 0.99 1.32 1.98 2 3 C1.34 3 0.68 3 0 3 C0.1546875 4.423125 0.1546875 4.423125 0.3125 5.875 C0.32739189 13.20180877 -4.49793919 19.59752703 -9 25 C-9.495 26.010625 -9.99 27.02125 -10.5 28.0625 C-12 31 -12 31 -13.9375 32.75 C-17.15057593 36.25517374 -18.41056391 40.56986962 -20 45 C-20.66 45 -21.32 45 -22 45 C-22 45.66 -22 46.32 -22 47 C-22.99 47.66 -23.98 48.32 -25 49 C-25.33 49.99 -25.66 50.98 -26 52 C-28.97 52.495 -28.97 52.495 -32 53 C-31.6596875 52.55011719 -31.319375 52.10023438 -30.96875 51.63671875 C-23.37707356 42.19832291 -23.37707356 42.19832291 -17 32 C-16.34 32 -15.68 32 -15 32 C-14.65775391 31.05060547 -14.65775391 31.05060547 -14.30859375 30.08203125 C-12.1296629 24.95016127 -9.37659187 20.11101441 -6.72070312 15.21289062 C-4.05991432 10.23630351 -1.85854003 5.33026826 0 0 Z " fill="#55A976" transform="translate(152,112)"/>
<path d="M0 0 C0.66 0 1.32 0 2 0 C-0.33732477 15.52165189 -7.96263019 30.11376136 -15 44 C-16.00646546 40.48016145 -15.84586198 38.52394834 -14.75 35 C-14.37101563 33.7315625 -14.37101563 33.7315625 -13.984375 32.4375 C-12.96115473 29.9038117 -11.65195779 28.15925192 -10 26 C-9.09840023 23.95316992 -9.09840023 23.95316992 -8.4375 21.875 C-7.5305555 19.15929047 -7.07808677 18.07808677 -5 16 C-4.28072705 13.68234271 -3.6090107 11.34904126 -3 9 C-2.34 9 -1.68 9 -1 9 C-1.020625 7.88625 -1.04125 6.7725 -1.0625 5.625 C-1 2 -1 2 0 0 Z " fill="#50A66E" transform="translate(179,100)"/>
<path d="M0 0 C0.33 0.66 0.66 1.32 1 2 C0.67 2.66 0.34 3.32 0 4 C-0.53697092 10.898011 -0.3446521 15.86813782 3 22 C3.29483077 27.72463081 2.65018713 32.90449507 1.5 38.5 C1.35691406 39.22703125 1.21382813 39.9540625 1.06640625 40.703125 C0.71766302 42.47009071 0.35980277 44.23525309 0 46 C-0.33 46 -0.66 46 -1 46 C-1.02685095 43.52076199 -1.04676547 41.0418116 -1.0625 38.5625 C-1.07506836 37.50192383 -1.07506836 37.50192383 -1.08789062 36.41992188 C-1.09653588 34.61306441 -1.05220011 32.80612397 -1 31 C-0.67 30.67 -0.34 30.34 0 30 C-0.25197839 27.63140313 -0.58921468 25.34315301 -1 23 C-1.14695312 22.12472656 -1.29390625 21.24945313 -1.4453125 20.34765625 C-1.60773438 19.44917969 -1.77015625 18.55070312 -1.9375 17.625 C-2.16759766 16.34496094 -2.16759766 16.34496094 -2.40234375 15.0390625 C-2.59957031 14.36617187 -2.79679687 13.69328125 -3 13 C-3.66 12.67 -4.32 12.34 -5 12 C-5 10.35 -5 8.7 -5 7 C-4.01 6.67 -3.02 6.34 -2 6 C-2 4.35 -2 2.7 -2 1 C-1.34 0.67 -0.68 0.34 0 0 Z " fill="#52A871" transform="translate(81,78)"/>
<path d="M0 0 C-1 1.4375 -1 1.4375 -3 3 C-4.99382193 3.25726735 -6.98935239 3.50991617 -8.9921875 3.68359375 C-11.77601453 4.12229023 -13.7363407 5.37299488 -16 7 C-14.02 7.99 -12.04 8.98 -10 10 C-14.39844322 11.37344385 -17.92504555 10.24307502 -22.25 9.0625 C-22.99507812 8.86720703 -23.74015625 8.67191406 -24.5078125 8.47070312 C-26.34079386 7.98895802 -28.17071818 7.49560775 -30 7 C-30 6.67 -30 6.34 -30 6 C-29.06800781 5.82984375 -28.13601562 5.6596875 -27.17578125 5.484375 C-19.41282215 4.00870633 -12.01367845 2.21866575 -4.51171875 -0.328125 C-2 -1 -2 -1 0 0 Z " fill="#D8F6E5" transform="translate(74,47)"/>
<path d="M0 0 C2.76280468 -0.05656604 5.2678617 0.0426297 8 0.3125 C9.45833258 0.43360279 10.91666588 0.55469694 12.375 0.67578125 C14.169375 0.83626953 14.169375 0.83626953 16 1 C16.66 1 17.32 1 18 1 C20.00136469 7.82065085 19.82456009 15.46820479 17 22 C16.67 22 16.34 22 16 22 C16.33 16.39 16.66 10.78 17 5 C10.73 4.34 4.46 3.68 -2 3 C-1.34 2.01 -0.68 1.02 0 0 Z " fill="#5AA977" transform="translate(148,49)"/>
<path d="M0 0 C-2.18296533 4.36593067 -9.62132954 5.47994342 -14 7 C-27.39742547 11.28221924 -27.39742547 11.28221924 -33 11 C-30.39416185 9.26277456 -28.66582256 8.46477376 -25.75 7.5625 C-20.78115978 5.95730649 -15.91587947 4.36128278 -11.625 1.3125 C-7.79590809 -0.60204595 -4.20420165 -0.24730598 0 0 Z " fill="#4FA66F" transform="translate(82,41)"/>
<path d="M0 0 C0.33 0 0.66 0 1 0 C1.4633257 9.57539773 -0.28364331 18.62133665 -2 28 C3.61 28 9.22 28 15 28 C15 28.66 15 29.32 15 30 C8.73 30 2.46 30 -4 30 C-3.46534382 19.73460135 -2.07464983 10.04704634 0 0 Z " fill="#E3FCEB" transform="translate(83,108)"/>
<path d="M0 0 C4.57853708 2.06148063 8.62033438 5.07529286 12.69140625 7.98632812 C15.7514739 10.04739321 17.52498591 11.02449113 21.2578125 10.83203125 C23.18038161 10.24868763 25.09398175 9.63533942 27 9 C25.63016497 12.16115776 25.0109362 12.9927092 22 15 C19.95703125 15.1953125 19.95703125 15.1953125 17.8125 15.125 C15.9253125 15.063125 15.9253125 15.063125 14 15 C13.67 14.01 13.34 13.02 13 12 C12.01 11.34 11.02 10.68 10 10 C10 9.34 10 8.68 10 8 C9.01 8 8.02 8 7 8 C7 7.34 7 6.68 7 6 C4.525 5.01 4.525 5.01 2 4 C2 3.34 2 2.68 2 2 C1.34 2 0.68 2 0 2 C0 1.34 0 0.68 0 0 Z " fill="#E1F8E7" transform="translate(78,200)"/>
<path d="M0 0 C2.70272533 2.87164566 3.94791837 4.30991841 4.25 8.3125 C4.1675 9.199375 4.085 10.08625 4 11 C4.66 11 5.32 11 6 11 C7.84269722 16.92295536 8.9611908 22.8887076 10 29 C9.34 29.33 8.68 29.66 8 30 C7.03976175 27.14646179 6.08175987 24.29220445 5.125 21.4375 C4.85558594 20.63763672 4.58617187 19.83777344 4.30859375 19.01367188 C-0.31509113 5.19900364 -0.31509113 5.19900364 0 0 Z " fill="#4DA66F" transform="translate(11,86)"/>
<path d="M0 0 C1.62495117 0.54165039 3.24988779 1.08334451 4.87475586 1.62524414 C6.2620289 2.08744956 7.64956637 2.54886199 9.03735352 3.00952148 C11.84408602 3.94203546 14.64813041 4.87594342 17.4375 5.859375 C24.80435657 8.44928551 32.41754128 10.16718482 40 12 C40 12.33 40 12.66 40 13 C37.93690624 12.88521587 35.87451646 12.75773802 33.8125 12.625 C32.08966797 12.52058594 32.08966797 12.52058594 30.33203125 12.4140625 C27.17367951 12.02158268 24.88365146 11.28822917 22 10 C20.4221875 9.566875 20.4221875 9.566875 18.8125 9.125 C14.06844746 7.72511564 9.56961098 5.88074021 5 4 C3.3339742 3.33173339 1.66748391 2.66461992 0 2 C0 1.34 0 0.68 0 0 Z " fill="#D4F6E1" transform="translate(112,40)"/>
<path d="M0 0 C0.91662607 2.49277576 1.17798858 3.58625462 0.109375 6.0703125 C-0.33921875 6.74835938 -0.7878125 7.42640625 -1.25 8.125 C-1.68828125 8.80820313 -2.1265625 9.49140625 -2.578125 10.1953125 C-4 12 -4 12 -7 14 C-8.20450304 16.55183404 -8.20450304 16.55183404 -9 19 C-9.66 19 -10.32 19 -11 19 C-11.33 19.99 -11.66 20.98 -12 22 C-12.99 22 -13.98 22 -15 22 C-13.68471147 19.19652117 -12.21008363 16.81846385 -10.3125 14.375 C-6.7281869 9.68441742 -3.36075282 4.85221118 0 0 Z " fill="#D8F5E2" transform="translate(157,154)"/>
<path d="M0 0 C1.65 0 3.3 0 5 0 C-0.766471 7.8075243 -6.54176624 14.74470717 -14 21 C-14.66 20.01 -15.32 19.02 -16 18 C-15.01 18 -14.02 18 -13 18 C-12.731875 17.401875 -12.46375 16.80375 -12.1875 16.1875 C-11.00082594 14.00152146 -9.90400887 12.58667406 -8 11 C-7.34 11 -6.68 11 -6 11 C-5.34 9.68 -4.68 8.36 -4 7 C-3.34 7 -2.68 7 -2 7 C-1.34 4.69 -0.68 2.38 0 0 Z " fill="#E0FAEB" transform="translate(124,154)"/>
<path d="M0 0 C-3.53883103 2.35922069 -6.98146796 3.13427217 -11.0625 4.0625 C-11.83110352 4.2387793 -12.59970703 4.41505859 -13.39160156 4.59667969 C-23.33160562 6.81441994 -32.82310264 7.14356125 -43 7 C-43 6.67 -43 6.34 -43 6 C-42.11030518 5.94054199 -42.11030518 5.94054199 -41.20263672 5.87988281 C-30.43443274 5.12546248 -20.22772369 4.35701175 -9.97265625 0.8046875 C-6.55247769 -0.1211427 -3.52737011 -0.13244193 0 0 Z " fill="#D2F9E0" transform="translate(59,24)"/>
<path d="M0 0 C1.36948916 3.95630201 0.77791742 5.33249547 0 10 C6.27 10 12.54 10 19 10 C19 10.33 19 10.66 19 11 C14.03302318 11.77913362 9.15413671 12.13836544 4.125 12.25 C3.01382813 12.27578125 1.90265625 12.3015625 0.7578125 12.328125 C-0.15226562 12.21984375 -1.06234375 12.1115625 -2 12 C-2.66 11.01 -3.32 10.02 -4 9 C-3.125 5.8125 -3.125 5.8125 -2 3 C-1.34 3 -0.68 3 0 3 C0 2.01 0 1.02 0 0 Z " fill="#62B07E" transform="translate(79,128)"/>
<path d="M0 0 C0.33 0 0.66 0 1 0 C2.125 7.75 2.125 7.75 1 10 C1 10.99 1 11.98 1 13 C1 16 1 16 0 18 C-0.66 18 -1.32 18 -2 18 C-2.12375 19.134375 -2.2475 20.26875 -2.375 21.4375 C-2.58125 22.613125 -2.7875 23.78875 -3 25 C-3.66 25.33 -4.32 25.66 -5 26 C-4.35215814 20.05349367 -3.28016565 14.32612517 -1.9375 8.5 C-1.75123047 7.67757812 -1.56496094 6.85515625 -1.37304688 6.0078125 C-0.91879115 4.0044283 -0.45988401 2.0020997 0 0 Z " fill="#63B07F" transform="translate(163,72)"/>
<path d="M0 0 C6.04904383 0.7541867 12.07526232 0.99700813 18.1640625 1.22265625 C19.26363281 1.26583984 20.36320312 1.30902344 21.49609375 1.35351562 C24.17699132 1.45842031 26.85796251 1.56058351 29.5390625 1.66015625 C29.5390625 1.99015625 29.5390625 2.32015625 29.5390625 2.66015625 C25.28944464 2.8570963 21.03936223 3.04107699 16.7890625 3.22265625 C15.5825 3.27873047 14.3759375 3.33480469 13.1328125 3.39257812 C11.39257812 3.46508789 11.39257812 3.46508789 9.6171875 3.5390625 C8.01472168 3.60975952 8.01472168 3.60975952 6.37988281 3.68188477 C3.87211843 3.66270369 1.91702823 3.40515184 -0.4609375 2.66015625 C-0.4609375 2.00015625 -0.4609375 1.34015625 -0.4609375 0.66015625 C-1.4509375 1.15515625 -1.4509375 1.15515625 -2.4609375 1.66015625 C-4.46053762 1.70014825 -6.46140992 1.70362424 -8.4609375 1.66015625 C-5.36410242 -0.17729923 -3.54561503 -0.51230975 0 0 Z " fill="#50A670" transform="translate(64.4609375,58.33984375)"/>
<path d="M0 0 C0.33 0 0.66 0 1 0 C1 13.2 1 26.4 1 40 C2.32 40.33 3.64 40.66 5 41 C3.35 42.32 1.7 43.64 0 45 C0 30.15 0 15.3 0 0 Z " fill="#DAFDE8" transform="translate(99,139)"/>
<path d="M0 0 C5.82491155 0.59370559 11.20398476 1.711751 16.8125 3.375 C17.56208984 3.58382812 18.31167969 3.79265625 19.08398438 4.0078125 C22.8726239 5.11833418 25.37045484 6.06184181 28 9 C18.22911364 7.45342479 9.07320336 4.95447138 0 1 C0 0.67 0 0.34 0 0 Z " fill="#5AA777" transform="translate(118,42)"/>
<path d="M0 0 C7.45937249 0.61142397 7.45937249 0.61142397 10 2.4375 C11 4 11 4 11 6 C11.928125 5.95875 12.85625 5.9175 13.8125 5.875 C17 6 17 6 20 8 C20 8.99 20 9.98 20 11 C15.55619192 9.86726461 11.73563279 8.71682385 8 6 C8 5.34 8 4.68 8 4 C7.05125 3.71125 6.1025 3.4225 5.125 3.125 C2 2 2 2 0 0 Z " fill="#D7F5E1" transform="translate(100,6)"/>
<path d="M0 0 C0.74830078 0.34611328 0.74830078 0.34611328 1.51171875 0.69921875 C8.23379564 3.752514 15.09349602 6.39538335 22 9 C22 9.33 22 9.66 22 10 C16.25 10.125 16.25 10.125 14 9 C12.88625 8.8453125 12.88625 8.8453125 11.75 8.6875 C8.26511965 7.81627991 5.93180797 6.03951859 3 4 C2.01 3.67 1.02 3.34 0 3 C0 2.01 0 1.02 0 0 Z " fill="#53A670" transform="translate(112,14)"/>
<path d="M0 0 C0.33 1.32 0.66 2.64 1 4 C2.11375 4.144375 3.2275 4.28875 4.375 4.4375 C8 5 8 5 10 6 C9.67 6.99 9.34 7.98 9 9 C3.18738629 7.26017005 -1.83169994 5.1889511 -7 2 C-4.35261084 0.5393715 -3.10551666 0 0 0 Z " fill="#51A870" transform="translate(109,33)"/>
<path d="M0 0 C8.58 0 17.16 0 26 0 C26 0.99 26 1.98 26 3 C17.10456358 3.19865739 8.67089803 3.33447255 0 1 C0 0.67 0 0.34 0 0 Z " fill="#D7F7E3" transform="translate(152,28)"/>
<path d="M0 0 C1.43739513 -0.02712066 2.87493863 -0.04645067 4.3125 -0.0625 C5.51326172 -0.07990234 5.51326172 -0.07990234 6.73828125 -0.09765625 C9 0 9 0 12 1 C12.11269443 7.1105424 11.89604368 12.95170514 11 19 C10.67 19 10.34 19 10 19 C9.67 13.72 9.34 8.44 9 3 C4.545 2.01 4.545 2.01 0 1 C0 0.67 0 0.34 0 0 Z " fill="#D9FAE6" transform="translate(153,53)"/>
<path d="M0 0 C0.66 0.33 1.32 0.66 2 1 C-2.22692964 5.71312578 -6.94353681 7.4705901 -13 9 C-16.6875 8.75 -16.6875 8.75 -19 8 C-15.68983906 6.15209462 -12.42826509 5.25458513 -8.75 4.375 C-7.67234375 4.11460938 -6.5946875 3.85421875 -5.484375 3.5859375 C-4.66453125 3.39257812 -3.8446875 3.19921875 -3 3 C-3 2.34 -3 1.68 -3 1 C-2.01 0.67 -1.02 0.34 0 0 Z " fill="#5FAC79" transform="translate(71,19)"/>
<path d="M0 0 C3 1 3 1 4.38671875 3.07421875 C8.69379336 11.72717045 8.69379336 11.72717045 8 17 C5.72195761 14.12071475 3.95965316 11.2169671 2.3125 7.9375 C1.87550781 7.08027344 1.43851563 6.22304687 0.98828125 5.33984375 C0 3 0 3 0 0 Z " fill="#53A771" transform="translate(20,117)"/>
<path d="M0 0 C0.99 0.33 1.98 0.66 3 1 C1.55575365 4.23861303 -0.25772247 6.61969163 -2.625 9.25 C-3.25664062 9.95640625 -3.88828125 10.6628125 -4.5390625 11.390625 C-5.02117187 11.92171875 -5.50328125 12.4528125 -6 13 C-6.5859375 11.09375 -6.5859375 11.09375 -7 9 C-5.625 7.5 -5.625 7.5 -4 6 C-3.28552357 3.89667109 -3.28552357 3.89667109 -3 2 C-2.01 2 -1.02 2 0 2 C0 1.34 0 0.68 0 0 Z " fill="#4EA56C" transform="translate(142,169)"/>
<path d="M0 0 C0.33 0 0.66 0 1 0 C2.33257403 9.41002278 2.33257403 9.41002278 1 14 C-0.65 14 -2.3 14 -4 14 C-3.36843005 8.94744036 -1.86540627 4.70406799 0 0 Z " fill="#51AC74" transform="translate(157,98)"/>
<path d="M0 0 C-12.17391304 8 -12.17391304 8 -18 8 C-18 8.66 -18 9.32 -18 10 C-18.66 9.67 -19.32 9.34 -20 9 C-19.34 8.01 -18.68 7.02 -18 6 C-14.875 5.8125 -14.875 5.8125 -12 6 C-12 5.01 -12 4.02 -12 3 C-10.35 3 -8.7 3 -7 3 C-6.67 2.01 -6.34 1.02 -6 0 C-3 -1 -3 -1 0 0 Z " fill="#DBF6E5" transform="translate(86,12)"/>
<path d="M0 0 C5.625 -0.25 5.625 -0.25 9 2 C11.05709596 2.24055468 11.05709596 2.24055468 13.1875 2.125 C14.445625 2.08375 15.70375 2.0425 17 2 C12.87878788 6 12.87878788 6 9.0625 6 C5.53488212 4.84812477 2.94430722 3.24328169 0 1 C0 0.67 0 0.34 0 0 Z " fill="#56A876" transform="translate(88,206)"/>
<path d="M0 0 C0.66 0 1.32 0 2 0 C1.29411026 7.05889737 0.21786614 14.01204964 -1 21 C-1.33 21 -1.66 21 -2 21 C-2.0543965 18.62468606 -2.09385864 16.25064117 -2.125 13.875 C-2.14175781 13.20984375 -2.15851563 12.5446875 -2.17578125 11.859375 C-2.21847278 7.50483944 -1.59996217 4.04399886 0 0 Z " fill="#5FAB7B" transform="translate(82,103)"/>
<path d="M0 0 C2.5625 0.625 2.5625 0.625 6 2 C6.86238281 2.3403125 7.72476563 2.680625 8.61328125 3.03125 C11.08073592 4.00845977 13.54199315 4.99930946 16 6 C16 6.66 16 7.32 16 8 C11.39583374 7.39124245 7.43516676 6.15277044 3.125 4.4375 C1.97257812 3.98246094 0.82015625 3.52742188 -0.3671875 3.05859375 C-1.23601562 2.70925781 -2.10484375 2.35992188 -3 2 C-2.01 1.34 -1.02 0.68 0 0 Z " fill="#D6F5E1" transform="translate(126,18)"/>
<path d="M0 0 C0 3.3 0 6.6 0 10 C0.99 10.33 1.98 10.66 3 11 C0.125 11.1875 0.125 11.1875 -3 11 C-3.66 10.01 -4.32 9.02 -5 8 C-4.34 8 -3.68 8 -3 8 C-3 6.02 -3 4.04 -3 2 C-3.66 1.67 -4.32 1.34 -5 1 C-3 0 -3 0 0 0 Z " fill="#6DAA85" transform="translate(99,58)"/>
<path d="M0 0 C0.99 0.33 1.98 0.66 3 1 C1.68 3.31 0.36 5.62 -1 8 C-1.66 8 -2.32 8 -3 8 C-3.2475 8.7425 -3.495 9.485 -3.75 10.25 C-5.09147301 13.20124062 -6.60905526 14.84814974 -9 17 C-7.85569823 13.12697862 -6.76679902 9.99736561 -4 7 C-3.34 7 -2.68 7 -2 7 C-1.855625 6.21625 -1.71125 5.4325 -1.5625 4.625 C-1 2 -1 2 0 0 Z " fill="#DEFAEB" transform="translate(138,136)"/>
<path d="M0 0 C0.75 1.625 0.75 1.625 1 4 C0.360625 4.825 -0.27875 5.65 -0.9375 6.5 C-4.32801642 10.99738604 -3.3114062 16.65419355 -3 22 C-5.6618004 19.3381996 -5.29866602 17.95750737 -5.3125 14.25 C-5.21985639 8.30655588 -4.29632905 4.29632905 0 0 Z " fill="#D5F5E0" transform="translate(85,74)"/>
<path d="M0 0 C1.32 0 2.64 0 4 0 C4 0.66 4 1.32 4 2 C4.94875 2.309375 5.8975 2.61875 6.875 2.9375 C10 4 10 4 12 5 C12 5.66 12 6.32 12 7 C12.66 7.33 13.32 7.66 14 8 C13.01 8 12.02 8 11 8 C11 7.34 11 6.68 11 6 C10.34 6 9.68 6 9 6 C8.67 6.66 8.34 7.32 8 8 C8 7.34 8 6.68 8 6 C6.8553125 5.9071875 6.8553125 5.9071875 5.6875 5.8125 C3 5 3 5 1.1875 2.4375 C0.795625 1.633125 0.40375 0.82875 0 0 Z " fill="#5BAE7B" transform="translate(96,5)"/>
<path d="M0 0 C1.78036608 5.60815314 0.01897247 10.91959787 -2.5 16.0625 C-2.995 16.701875 -3.49 17.34125 -4 18 C-4.66 18 -5.32 18 -6 18 C-4.23536928 11.89262558 -2.30442525 5.92566493 0 0 Z " fill="#D9F7E4" transform="translate(180,104)"/>
<path d="M0 0 C2.37946933 2.37946933 2.67163781 3.89258668 3.5 7.125 C3.75394531 8.10339844 4.00789062 9.08179687 4.26953125 10.08984375 C4.51058594 11.05019531 4.75164063 12.01054688 5 13 C5.31517578 14.23943359 5.31517578 14.23943359 5.63671875 15.50390625 C6.09836758 17.33413105 6.55034511 19.16679162 7 21 C6.34 20.67 5.68 20.34 5 20 C4.26924352 17.6859378 3.59861742 15.35171131 3 13 C2.34 13 1.68 13 1 13 C0.67 8.71 0.34 4.42 0 0 Z " fill="#CAF1D8" transform="translate(11,91)"/>
<path d="M0 0 C0.66 0.99 1.32 1.98 2 3 C0.97919124 6.98115416 -0.88205947 9.36923768 -4 12 C-4.66 12 -5.32 12 -6 12 C-4.43358249 7.69235185 -2.31663844 3.93828536 0 0 Z " fill="#D4F4DE" transform="translate(164,142)"/>
<path d="M0 0 C1.21236328 0.04060547 1.21236328 0.04060547 2.44921875 0.08203125 C3.06410156 0.11683594 3.67898437 0.15164062 4.3125 0.1875 C2.97394904 2.86460191 1.59191912 3.13879094 -1.125 4.3125 C-1.92808594 4.66570313 -2.73117188 5.01890625 -3.55859375 5.3828125 C-5.6875 6.1875 -5.6875 6.1875 -7.6875 6.1875 C-7.6875 3.1875 -7.6875 3.1875 -6.48046875 1.51171875 C-4.17055898 -0.19429304 -2.83859181 -0.12341704 0 0 Z " fill="#66B17F" transform="translate(77.6875,40.8125)"/>
<path d="M0 0 C1.35965896 0.96390108 2.69827833 1.95918375 4 3 C3.19175781 2.98839844 2.38351563 2.97679687 1.55078125 2.96484375 C-0.05216797 2.95130859 -0.05216797 2.95130859 -1.6875 2.9375 C-2.74324219 2.92589844 -3.79898438 2.91429687 -4.88671875 2.90234375 C-7.72410262 2.99134575 -10.2438919 3.35060162 -13 4 C-8.90857347 -0.50056918 -6.00024408 -1.6250661 0 0 Z " fill="#CDF0D8" transform="translate(102,34)"/>
<path d="M0 0 C0.33 0.66 0.66 1.32 1 2 C2.85744207 2.61067144 2.85744207 2.61067144 5 3 C7 3.5 7 3.5 9 4 C8.67 4.66 8.34 5.32 8 6 C7.34 5.67 6.68 5.34 6 5 C5.67 6.65 5.34 8.3 5 10 C2.08772731 6.71195019 0.50298788 4.40114397 0 0 Z " fill="#4FAA71" transform="translate(28,134)"/>
<path d="M0 0 C0.66 0 1.32 0 2 0 C1.38388165 4.31931387 0.35761422 8.25208775 -1.0625 12.375 C-1.42472656 13.43460938 -1.78695312 14.49421875 -2.16015625 15.5859375 C-2.43730469 16.38257812 -2.71445313 17.17921875 -3 18 C-3.33 18 -3.66 18 -4 18 C-3.67 15.03 -3.34 12.06 -3 9 C-2.34 9 -1.68 9 -1 9 C-1.020625 7.88625 -1.04125 6.7725 -1.0625 5.625 C-1 2 -1 2 0 0 Z " fill="#5EAA7B" transform="translate(179,100)"/>
<path d="M0 0 C1.32 0.33 2.64 0.66 4 1 C3.02526874 2.66926454 2.04510211 4.33535642 1.0625 6 C0.51722656 6.928125 -0.02804688 7.85625 -0.58984375 8.8125 C-1.05519531 9.534375 -1.52054688 10.25625 -2 11 C-2.33 11 -2.66 11 -3 11 C-3.33 8.69 -3.66 6.38 -4 4 C-2.68 3.34 -1.36 2.68 0 2 C0 1.34 0 0.68 0 0 Z " fill="#49A56B" transform="translate(159,144)"/>
<path d="M0 0 C0.66 0 1.32 0 2 0 C0.43551329 5.6143991 -1.16395187 10.86810338 -4 16 C-4.33 16 -4.66 16 -5 16 C-4.54177532 12.53058454 -4.10868317 9.32604951 -3 6 C-2.34 6 -1.68 6 -1 6 C-1.020625 5.195625 -1.04125 4.39125 -1.0625 3.5625 C-1 1 -1 1 0 0 Z " fill="#DEFBE7" transform="translate(150,112)"/>
<path d="M0 0 C1.04474487 0.08640747 1.04474487 0.08640747 2.1105957 0.17456055 C2.86791992 0.2293457 3.62524414 0.28413086 4.40551758 0.34057617 C5.19120117 0.4134082 5.97688477 0.48624023 6.78637695 0.5612793 C7.58366211 0.62250977 8.38094727 0.68374023 9.20239258 0.74682617 C11.16904648 0.89991899 13.13416685 1.07248639 15.09887695 1.2487793 C15.09887695 1.5787793 15.09887695 1.9087793 15.09887695 2.2487793 C8.39867906 2.95010842 1.83630341 3.35922891 -4.90112305 3.2487793 C-2.45543683 0.32131631 -2.45543683 0.32131631 0 0 Z " fill="#EBFEF1" transform="translate(11.901123046875,27.751220703125)"/>
<path d="M0 0 C1 3 1 3 0 6 C-1.77734375 7.203125 -1.77734375 7.203125 -3.9375 8.25 C-4.64777344 8.60578125 -5.35804687 8.9615625 -6.08984375 9.328125 C-6.72019531 9.54984375 -7.35054688 9.7715625 -8 10 C-8.66 9.67 -9.32 9.34 -10 9 C-6.7 6.03 -3.4 3.06 0 0 Z " fill="#D4F4E0" transform="translate(127,190)"/>
<path d="M0 0 C0.99 0.33 1.98 0.66 3 1 C3 2.32 3 3.64 3 5 C3.639375 5.268125 4.27875 5.53625 4.9375 5.8125 C7 7 7 7 8 10 C7.01 10 6.02 10 5 10 C3.39453125 8.25 3.39453125 8.25 1.8125 6 C1.28269531 5.2575 0.75289062 4.515 0.20703125 3.75 C-0.19128906 3.1725 -0.58960938 2.595 -1 2 C-0.67 1.34 -0.34 0.68 0 0 Z " fill="#4DA570" transform="translate(46,162)"/>
<path d="M0 0 C0.66 0 1.32 0 2 0 C1.45028435 3.84800954 -0.27037858 5.35309439 -3 8 C-3.350625 8.721875 -3.70125 9.44375 -4.0625 10.1875 C-5 12 -5 12 -8 13 C-6.66666667 10.33333333 -5.33333333 7.66666667 -4 5 C-3.34 5 -2.68 5 -2 5 C-1.34 3.35 -0.68 1.7 0 0 Z " fill="#61AE81" transform="translate(139,139)"/>
<path d="M0 0 C-5.93852229 3.95901486 -12.08104381 4.24710558 -19 4 C-19 3.67 -19 3.34 -19 3 C-6.51480638 -0.44419134 -6.51480638 -0.44419134 0 0 Z " fill="#E3FCEA" transform="translate(59,24)"/>
<path d="M0 0 C2.96659857 3.55991828 5.381348 7.65222543 7 12 C6.67 12.66 6.34 13.32 6 14 C2.125 11.25 2.125 11.25 1 9 C1.4375 6.875 1.4375 6.875 2 5 C1.34 5 0.68 5 0 5 C0 3.35 0 1.7 0 0 Z " fill="#CDF1D9" transform="translate(25,130)"/>
<path d="M0 0 C0.33 0.66 0.66 1.32 1 2 C0.67 2.66 0.34 3.32 0 4 C-0.99 4 -1.98 4 -3 4 C-3.33 4.99 -3.66 5.98 -4 7 C-4.66 7 -5.32 7 -6 7 C-6.33 7.66 -6.66 8.32 -7 9 C-8.32 8.67 -9.64 8.34 -11 8 C-7.37 5.36 -3.74 2.72 0 0 Z " fill="#D9F6E2" transform="translate(116,200)"/>
<path d="M0 0 C8.91 1.98 8.91 1.98 18 4 C18 4.33 18 4.66 18 5 C15.36 5.33 12.72 5.66 10 6 C10 5.34 10 4.68 10 4 C6.7 3.34 3.4 2.68 0 2 C0 1.34 0 0.68 0 0 Z " fill="#58A876" transform="translate(134,24)"/>
<path d="M0 0 C0.75 1.75 0.75 1.75 1 4 C-0.75 6.25 -0.75 6.25 -3 8 C-3.99 8 -4.98 8 -6 8 C-4.55746343 4.63408134 -2.66735273 2.48952921 0 0 Z " fill="#DDF5E3" transform="translate(141,176)"/>
<path d="M0 0 C0.66 0 1.32 0 2 0 C1.88512252 1.58409994 1.75765492 3.16728963 1.625 4.75 C1.52058594 6.07257813 1.52058594 6.07257813 1.4140625 7.421875 C1.00149945 9.99066382 0.28839043 11.75841015 -1 14 C-1.027193 12.41676312 -1.04648306 10.83338938 -1.0625 9.25 C-1.07410156 8.36828125 -1.08570313 7.4865625 -1.09765625 6.578125 C-1.00826198 4.2181162 -0.66912821 2.25501476 0 0 Z " fill="#5BA977" transform="translate(182,86)"/>
<path d="M0 0 C-4.625 4.875 -4.625 4.875 -8 6 C-7.625 3.5625 -7.625 3.5625 -7 1 C-4.53721199 -0.231394 -2.7204945 -0.07159196 0 0 Z " fill="#59A976" transform="translate(113,202)"/>
<path d="M0 0 C0.99 0.33 1.98 0.66 3 1 C0.6875 3.5 0.6875 3.5 -2 6 C-2.99 6 -3.98 6 -5 6 C-3.63016497 2.83884224 -3.0109362 2.0072908 0 0 Z " fill="#4EA86E" transform="translate(122,191)"/>
<path d="M0 0 C0.33 1.32 0.66 2.64 1 4 C-0.21484375 5.921875 -0.21484375 5.921875 -1.9375 7.75 C-2.50339844 8.36359375 -3.06929687 8.9771875 -3.65234375 9.609375 C-4.31943359 10.29773438 -4.31943359 10.29773438 -5 11 C-5.66 10.67 -6.32 10.34 -7 10 C-3.535 5.05 -3.535 5.05 0 0 Z " fill="#C6EDD6" transform="translate(157,154)"/>
<path d="M0 0 C2.70272533 2.87164566 3.94791837 4.30991841 4.25 8.3125 C4.1675 9.199375 4.085 10.08625 4 11 C3.01 11.495 3.01 11.495 2 12 C0.70756464 7.8803623 -0.26252625 4.33168317 0 0 Z " fill="#5AA977" transform="translate(11,86)"/>
<path d="M0 0 C0 3.57575896 -1.08840607 5.05295935 -3 8 C-4.32 7.34 -5.64 6.68 -7 6 C-4.69 4.02 -2.38 2.04 0 0 Z " fill="#64AC7C" transform="translate(108,176)"/>
<path d="M0 0 C0.33 0 0.66 0 1 0 C1.125 5.75 1.125 5.75 0 8 C-0.66 8 -1.32 8 -2 8 C-2 8.66 -2 9.32 -2 10 C-2.66 10 -3.32 10 -4 10 C-2.8905928 6.51329166 -1.73662334 3.22515763 0 0 Z " fill="#D1F3DB" transform="translate(169,132)"/>
<path d="M0 0 C4.8 3.32307692 4.8 3.32307692 5.8125 6.75 C5.874375 7.4925 5.93625 8.235 6 9 C4.85073734 8.04578192 3.70569459 7.08647955 2.5625 6.125 C1.92441406 5.59132812 1.28632812 5.05765625 0.62890625 4.5078125 C-1 3 -1 3 -2 1 C-1.34 0.67 -0.68 0.34 0 0 Z " fill="#5BA979" transform="translate(62,181)"/>
<path d="M0 0 C0.66 0.99 1.32 1.98 2 3 C0.35 4.65 -1.3 6.3 -3 8 C-3.75 6.25 -3.75 6.25 -4 4 C-2.0625 1.75 -2.0625 1.75 0 0 Z " fill="#4AA76E" transform="translate(154,154)"/>
<path d="M0 0 C-0.66 0 -1.32 0 -2 0 C-2 0.66 -2 1.32 -2 2 C-5.63 2 -9.26 2 -13 2 C-13 1.67 -13 1.34 -13 1 C-11.58622218 0.63447197 -10.16879424 0.28304505 -8.75 -0.0625 C-7.96109375 -0.25972656 -7.1721875 -0.45695312 -6.359375 -0.66015625 C-3.89605178 -1.01497267 -2.34395868 -0.76877544 0 0 Z " fill="#6AB082" transform="translate(52,28)"/>
<path d="M0 0 C1.33332095 2.6666419 0.67102033 4.16680303 0 7 C-1.98 7.33 -3.96 7.66 -6 8 C-4.02 5.36 -2.04 2.72 0 0 Z " fill="#5FAE7D" transform="translate(126,157)"/>
<path d="M0 0 C0.99 0 1.98 0 3 0 C5.1519437 3.22791555 5.20086443 4.28400809 5 8 C2.27573689 5.64722731 1.1858237 3.37503669 0 0 Z " fill="#78BA8D" transform="translate(35,149)"/>
<path d="M0 0 C0.33 0 0.66 0 1 0 C1.125 6.625 1.125 6.625 0 10 C-0.99 10 -1.98 10 -3 10 C-2.01 6.7 -1.02 3.4 0 0 Z " fill="#D2F5E1" transform="translate(173,122)"/>
<path d="M0 0 C1.31471568 0.28151087 2.62675767 0.57553339 3.9375 0.875 C4.66839844 1.03742188 5.39929688 1.19984375 6.15234375 1.3671875 C8 2 8 2 9 4 C7.3125 4.8125 7.3125 4.8125 5 5 C2.25 2.5625 2.25 2.5625 0 0 Z " fill="#62B07E" transform="translate(81,201)"/>
<path d="M0 0 C-1.23789629 3.71368887 -2.85224877 4.77354181 -6 7 C-6.66 7 -7.32 7 -8 7 C-8 6.34 -8 5.68 -8 5 C-7.34 5 -6.68 5 -6 5 C-6 4.34 -6 3.68 -6 3 C-3.89994105 0.39992701 -3.48266577 0 0 0 Z " fill="#51A46F" transform="translate(135,182)"/>
<path d="M0 0 C0.33 0 0.66 0 1 0 C1.1953125 6.0546875 1.1953125 6.0546875 1 8 C0.34 8.66 -0.32 9.32 -1 10 C-2.23076923 4.58461538 -2.23076923 4.58461538 -1.0625 1.625 C-0.5365625 0.820625 -0.5365625 0.820625 0 0 Z " fill="#60AE7C" transform="translate(185,76)"/>
<path d="M0 0 C-0.33 0.66 -0.66 1.32 -1 2 C-3.3140622 2.73075648 -5.64828869 3.40138258 -8 4 C-8 3.34 -8 2.68 -8 2 C-8.66 1.67 -9.32 1.34 -10 1 C-6.59437148 0.22157062 -3.49234244 -0.09978121 0 0 Z " fill="#53A672" transform="translate(97,67)"/>
<path d="M0 0 C1.65 0 3.3 0 5 0 C3.29374499 2.78388975 2.52373261 3.85384206 -0.6875 4.75 C-1.8321875 4.87375 -1.8321875 4.87375 -3 5 C-3.33 4.34 -3.66 3.68 -4 3 C-2.68 3 -1.36 3 0 3 C0 2.01 0 1.02 0 0 Z " fill="#65AD7C" transform="translate(85,36)"/>
<path d="M0 0 C-0.33 1.32 -0.66 2.64 -1 4 C-2.98 4 -4.96 4 -7 4 C-3.17391304 0 -3.17391304 0 0 0 Z " fill="#52AB6E" transform="translate(82,15)"/>
<path d="M0 0 C2.475 0.99 2.475 0.99 5 2 C5 2.99 5 3.98 5 5 C3.35 4.67 1.7 4.34 0 4 C-0.33 3.01 -0.66 2.02 -1 1 C-0.67 0.67 -0.34 0.34 0 0 Z " fill="#E0FAED" transform="translate(115,12)"/>
<path d="M0 0 C1.70884005 1.62339805 3.37446717 3.29319053 5 5 C5 5.66 5 6.32 5 7 C3.35 6.67 1.7 6.34 0 6 C0 4.02 0 2.04 0 0 Z " fill="#D0F2DC" transform="translate(41,159)"/>
<path d="M0 0 C-0.66 0.66 -1.32 1.32 -2 2 C-5.625 1.625 -5.625 1.625 -9 1 C-9 0.67 -9 0.34 -9 0 C-5.62182575 -0.84454356 -3.32534757 -1.10844919 0 0 Z " fill="#BCF5D2" transform="translate(53,53)"/>
</svg>
